#
#
#

mtllib Pacman01.mtl


#
# 
#
g 


#
# _Pacman_Normal
#
usemtl _Pacman_Normal

v 0.150000 1.200000 -0.200000
v 0.150000 1.100000 0.200000
v 0.150000 1.200000 0.200000
v 0.150000 1.100000 -0.200000
v 0.150000 0.100000 0.200000
v 0.150000 0.100000 -0.200000
v 0.150000 0.000000 0.200000
v 0.150000 0.000000 -0.200000
v 0.150000 1.100000 -0.400000
v 0.150000 0.100000 -0.200000
v 0.150000 1.100000 -0.200000
v 0.150000 1.000000 -0.400000
v 0.150000 0.100000 -0.400000
v 0.150000 0.200000 -0.400000
v 0.150000 1.100000 0.200000
v 0.150000 1.000000 0.400000
v 0.150000 1.100000 0.400000
v 0.150000 0.100000 0.200000
v 0.150000 0.200000 0.400000
v 0.150000 0.100000 0.400000
v 0.150000 1.000000 -0.500000
v 0.150000 0.200000 -0.400000
v 0.150000 1.000000 -0.400000
v 0.150000 0.800000 -0.500000
v 0.150000 0.200000 -0.500000
v 0.150000 0.400000 -0.500000
v 0.150000 1.000000 0.400000
v 0.150000 0.800000 0.500000
v 0.150000 1.000000 0.500000
v 0.150000 0.200000 0.400000
v 0.150000 0.400000 0.500000
v 0.150000 0.200000 0.500000
v 0.150000 0.400000 -0.500000
v 0.150000 0.800000 -0.500000
v 0.150000 0.800000 -0.600000
v 0.150000 0.400000 -0.600000
v 0.150000 0.400000 0.600000
v 0.150000 0.800000 0.600000
v 0.150000 0.800000 0.500000
v 0.150000 0.400000 0.500000
v -0.150000 1.200000 0.200000
v -0.150000 1.100000 -0.200000
v -0.150000 1.200000 -0.200000
v -0.150000 1.100000 0.200000
v -0.150000 0.100000 -0.200000
v -0.150000 0.100000 0.200000
v -0.150000 0.000000 -0.200000
v -0.150000 0.000000 0.200000
v -0.150000 1.100000 -0.200000
v -0.150000 1.000000 -0.400000
v -0.150000 1.100000 -0.400000
v -0.150000 0.100000 -0.200000
v -0.150000 0.200000 -0.400000
v -0.150000 0.100000 -0.400000
v -0.150000 1.100000 0.400000
v -0.150000 0.100000 0.200000
v -0.150000 1.100000 0.200000
v -0.150000 1.000000 0.400000
v -0.150000 0.100000 0.400000
v -0.150000 0.100000 0.400000
v -0.150000 1.000000 0.400000
v -0.150000 0.200000 0.400000
v -0.150000 1.000000 -0.400000
v -0.150000 0.800000 -0.500000
v -0.150000 1.000000 -0.500000
v -0.150000 0.200000 -0.400000
v -0.150000 0.400000 -0.500000
v -0.150000 0.200000 -0.500000
v -0.150000 1.000000 0.500000
v -0.150000 0.200000 0.400000
v -0.150000 1.000000 0.400000
v -0.150000 0.800000 0.500000
v -0.150000 0.200000 0.500000
v -0.150000 0.200000 0.500000
v -0.150000 0.800000 0.500000
v -0.150000 0.400000 0.500000
v -0.150000 0.400000 -0.600000
v -0.150000 0.800000 -0.600000
v -0.150000 0.800000 -0.500000
v -0.150000 0.400000 -0.500000
v -0.150000 0.400000 0.500000
v -0.150000 0.800000 0.500000
v -0.150000 0.800000 0.600000
v -0.150000 0.400000 0.600000
v 0.150000 0.400000 -0.600000
v 0.150000 0.800000 -0.600000
v -0.150000 0.800000 -0.600000
v -0.150000 0.400000 -0.600000
v 0.150000 0.200000 -0.500000
v 0.150000 0.400000 -0.500000
v -0.150000 0.400000 -0.500000
v -0.150000 0.200000 -0.500000
v 0.150000 0.800000 -0.500000
v 0.150000 1.000000 -0.500000
v -0.150000 1.000000 -0.500000
v -0.150000 0.800000 -0.500000
v 0.150000 0.100000 -0.400000
v 0.150000 0.200000 -0.400000
v -0.150000 0.200000 -0.400000
v -0.150000 0.100000 -0.400000
v 0.150000 1.000000 -0.400000
v 0.150000 1.100000 -0.400000
v -0.150000 1.100000 -0.400000
v -0.150000 1.000000 -0.400000
v 0.150000 0.000000 -0.200000
v 0.150000 0.100000 -0.200000
v -0.150000 0.100000 -0.200000
v -0.150000 0.000000 -0.200000
v 0.150000 1.100000 -0.200000
v 0.150000 1.200000 -0.200000
v -0.150000 1.200000 -0.200000
v -0.150000 1.100000 -0.200000
v -0.150000 0.400000 0.600000
v -0.150000 0.800000 0.600000
v 0.150000 0.800000 0.600000
v 0.150000 0.400000 0.600000
v -0.150000 0.200000 0.500000
v -0.150000 0.400000 0.500000
v 0.150000 0.400000 0.500000
v 0.150000 0.200000 0.500000
v -0.150000 0.800000 0.500000
v -0.150000 1.000000 0.500000
v 0.150000 1.000000 0.500000
v 0.150000 0.800000 0.500000
v -0.150000 0.000000 0.200000
v -0.150000 0.100000 0.200000
v 0.150000 0.100000 0.200000
v 0.150000 0.000000 0.200000
v -0.150000 1.100000 0.200000
v -0.150000 1.200000 0.200000
v 0.150000 1.200000 0.200000
v 0.150000 1.100000 0.200000
v -0.150000 0.100000 0.400000
v -0.150000 0.200000 0.400000
v 0.150000 0.200000 0.400000
v 0.150000 0.100000 0.400000
v -0.150000 1.000000 0.400000
v -0.150000 1.100000 0.400000
v 0.150000 1.100000 0.400000
v 0.150000 1.000000 0.400000
v 0.150000 1.200000 -0.200000
v 0.150000 1.200000 0.200000
v -0.150000 1.200000 -0.200000
v -0.150000 1.200000 0.200000
v 0.150000 1.100000 -0.400000
v 0.150000 1.100000 -0.200000
v -0.150000 1.100000 -0.400000
v -0.150000 1.100000 -0.200000
v 0.150000 1.100000 0.200000
v 0.150000 1.100000 0.400000
v -0.150000 1.100000 0.200000
v -0.150000 1.100000 0.400000
v 0.150000 0.800000 -0.600000
v 0.150000 0.800000 -0.500000
v -0.150000 0.800000 -0.600000
v -0.150000 0.800000 -0.500000
v 0.150000 1.000000 -0.500000
v 0.150000 1.000000 -0.400000
v -0.150000 1.000000 -0.500000
v -0.150000 1.000000 -0.400000
v 0.150000 1.000000 0.400000
v 0.150000 1.000000 0.500000
v -0.150000 1.000000 0.400000
v -0.150000 1.000000 0.500000
v 0.150000 0.800000 0.500000
v 0.150000 0.800000 0.600000
v -0.150000 0.800000 0.500000
v -0.150000 0.800000 0.600000
v -0.150000 0.000000 -0.200000
v -0.150000 0.000000 0.200000
v 0.150000 0.000000 -0.200000
v 0.150000 0.000000 0.200000
v -0.150000 0.100000 -0.400000
v -0.150000 0.100000 -0.200000
v 0.150000 0.100000 -0.400000
v 0.150000 0.100000 -0.200000
v -0.150000 0.100000 0.200000
v -0.150000 0.100000 0.400000
v 0.150000 0.100000 0.200000
v 0.150000 0.100000 0.400000
v -0.150000 0.400000 -0.600000
v -0.150000 0.400000 -0.500000
v 0.150000 0.400000 -0.600000
v 0.150000 0.400000 -0.500000
v -0.150000 0.200000 -0.500000
v -0.150000 0.200000 -0.400000
v 0.150000 0.200000 -0.500000
v 0.150000 0.200000 -0.400000
v -0.150000 0.200000 0.400000
v -0.150000 0.200000 0.500000
v 0.150000 0.200000 0.400000
v 0.150000 0.200000 0.500000
v -0.150000 0.400000 0.500000
v -0.150000 0.400000 0.600000
v 0.150000 0.400000 0.500000
v 0.150000 0.400000 0.600000
vn 1.000000 0.000000 -0.000000
vn -1.000000 0.000000 0.000000
vn -0.000000 0.000000 -1.000000
vn 0.000000 0.000000 1.000000
vn 0.000000 1.000000 0.000000
vn 0.000000 -1.000000 0.000000
vt 0.250000 0.625000
vt 0.125000 0.625000
vt 0.125000 0.656250
vt 0.250000 0.656250
vt 0.125000 0.968750
vt 0.250000 0.968750
vt 0.125000 1.000000
vt 0.250000 1.000000
vt 0.625000 0.687500
vt 0.562500 0.687500
vt 0.562500 1.000000
vt 0.625000 0.718750
vt 0.625000 1.000000
vt 0.625000 0.968750
vt 0.500000 0.687500
vt 0.500000 0.718750
vt 0.500000 0.968750
vt 0.500000 1.000000
vt 0.062500 0.375000
vt 0.031250 0.375000
vt 0.031250 0.625000
vt 0.062500 0.437500
vt 0.062500 0.625000
vt 0.062500 0.562500
vt 0.843750 0.750000
vt 0.812500 0.750000
vt 0.812500 0.812500
vt 0.843750 1.000000
vt 0.812500 0.937500
vt 0.812500 1.000000
vt 0.125000 0.375000
vt 0.156250 0.250000
vt 0.125000 0.250000
vt 0.156250 0.375000
vt 0.093750 0.375000
vt 0.093750 0.250000
vt 0.000000 0.625000
vt 0.000000 0.656250
vt 0.000000 0.968750
vt 0.000000 1.000000
vt 0.437500 0.687500
vt 0.375000 0.687500
vt 0.375000 0.718750
vt 0.437500 1.000000
vt 0.375000 0.968750
vt 0.375000 1.000000
vt 0.812500 0.687500
vt 0.750000 0.687500
vt 0.750000 1.000000
vt 0.812500 0.718750
vt 0.812500 0.968750
vt 1.000000 0.750000
vt 0.968750 0.750000
vt 0.968750 0.812500
vt 1.000000 1.000000
vt 0.968750 0.937500
vt 0.968750 1.000000
vt 0.937500 0.750000
vt 0.937500 1.000000
vt 0.218750 0.375000
vt 0.250000 0.250000
vt 0.218750 0.250000
vt 0.250000 0.375000
vt 0.906250 0.625000
vt 0.937500 0.500000
vt 0.906250 0.500000
vt 0.937500 0.625000
vt 0.281250 0.625000
vt 0.375000 0.500000
vt 0.281250 0.500000
vt 0.375000 0.625000
vt 0.312500 0.687500
vt 0.406250 0.625000
vt 0.312500 0.625000
vt 0.406250 0.687500
vt 0.906250 0.750000
vt 1.000000 0.687500
vt 0.906250 0.687500
vt 0.312500 0.093750
vt 0.406250 0.062500
vt 0.312500 0.062500
vt 0.406250 0.093750
vt 0.687500 0.093750
vt 0.781250 0.062500
vt 0.687500 0.062500
vt 0.781250 0.093750
vt 0.093750 0.062500
vt 0.187500 0.031250
vt 0.093750 0.031250
vt 0.187500 0.062500
vt 0.281250 0.031250
vt 0.281250 0.062500
vt 0.187500 0.625000
vt 0.187500 0.500000
vt 0.500000 0.625000
vt 0.687500 0.687500
vt 0.781250 0.625000
vt 0.687500 0.625000
vt 0.781250 0.687500
vt 0.000000 0.062500
vt 0.000000 0.031250
vt 0.875000 0.093750
vt 0.968750 0.062500
vt 0.875000 0.062500
vt 0.968750 0.093750
vt 0.843750 0.125000
vt 0.937500 0.093750
vt 0.843750 0.093750
vt 0.937500 0.125000
vt 0.187500 0.375000
vt 0.187500 0.468750
vt 0.312500 0.375000
vt 0.312500 0.468750
vt 0.625000 0.281250
vt 0.625000 0.375000
vt 0.687500 0.281250
vt 0.687500 0.375000
vt 0.250000 0.281250
vt 0.312500 0.281250
vt 0.718750 0.156250
vt 0.718750 0.250000
vt 0.750000 0.156250
vt 0.750000 0.250000
vt 0.625000 0.156250
vt 0.625000 0.250000
vt 0.656250 0.156250
vt 0.656250 0.250000
vt 0.687500 0.156250
vt 0.687500 0.250000
vt 0.812500 0.156250
vt 0.812500 0.250000
vt 0.843750 0.156250
vt 0.843750 0.250000
vt 0.062500 0.468750
vt 0.500000 0.281250
vt 0.500000 0.375000
vt 0.562500 0.281250
vt 0.562500 0.375000
vt 0.437500 0.281250
vt 0.437500 0.375000
vt 0.781250 0.156250
vt 0.781250 0.250000
vt 0.875000 0.156250
vt 0.875000 0.250000
f 1/1/1 3/2/1 2/3/1
f 2/3/1 4/4/1 1/1/1
f 4/4/1 2/3/1 5/5/1
f 5/5/1 6/6/1 4/4/1
f 6/6/1 5/5/1 7/7/1
f 7/7/1 8/8/1 6/6/1
f 9/9/1 11/10/1 10/11/1
f 10/11/1 12/12/1 9/9/1
f 12/12/1 10/11/1 13/13/1
f 13/13/1 14/14/1 12/12/1
f 15/10/1 17/15/1 16/16/1
f 16/16/1 18/11/1 15/10/1
f 18/11/1 16/16/1 19/17/1
f 19/17/1 20/18/1 18/11/1
f 21/19/1 23/20/1 22/21/1
f 22/21/1 24/22/1 21/19/1
f 24/22/1 22/21/1 25/23/1
f 25/23/1 26/24/1 24/22/1
f 27/25/1 29/26/1 28/27/1
f 28/27/1 30/28/1 27/25/1
f 30/28/1 28/27/1 31/29/1
f 31/29/1 32/30/1 30/28/1
f 33/31/1 35/32/1 34/33/1
f 33/31/1 36/34/1 35/32/1
f 37/35/1 39/33/1 38/36/1
f 37/35/1 40/31/1 39/33/1
f 41/2/2 43/37/2 42/38/2
f 42/38/2 44/3/2 41/2/2
f 44/3/2 42/38/2 45/39/2
f 45/39/2 46/5/2 44/3/2
f 46/5/2 45/39/2 47/40/2
f 47/40/2 48/7/2 46/5/2
f 49/41/2 51/42/2 50/43/2
f 50/43/2 52/44/2 49/41/2
f 52/44/2 50/43/2 53/45/2
f 53/45/2 54/46/2 52/44/2
f 55/47/2 57/48/2 56/49/2
f 56/49/2 58/50/2 55/47/2
f 58/50/2 56/49/2 59/30/2
f 60/30/2 62/51/2 61/50/2
f 63/52/2 65/53/2 64/54/2
f 64/54/2 66/55/2 63/52/2
f 66/55/2 64/54/2 67/56/2
f 67/56/2 68/57/2 66/55/2
f 69/53/2 71/58/2 70/59/2
f 70/59/2 72/54/2 69/53/2
f 72/54/2 70/59/2 73/57/2
f 74/57/2 76/56/2 75/54/2
f 77/60/2 79/61/2 78/62/2
f 77/60/2 80/63/2 79/61/2
f 81/64/2 83/65/2 82/66/2
f 81/64/2 84/67/2 83/65/2
f 85/68/3 87/69/3 86/70/3
f 85/68/3 88/71/3 87/69/3
f 89/72/3 91/73/3 90/74/3
f 89/72/3 92/75/3 91/73/3
f 93/76/3 95/77/3 94/78/3
f 93/76/3 96/52/3 95/77/3
f 97/79/3 99/80/3 98/81/3
f 97/79/3 100/82/3 99/80/3
f 101/83/3 103/84/3 102/85/3
f 101/83/3 104/86/3 103/84/3
f 105/87/3 107/88/3 106/89/3
f 105/87/3 108/90/3 107/88/3
f 109/90/3 111/91/3 110/88/3
f 109/90/3 112/92/3 111/91/3
f 113/93/4 115/70/4 114/94/4
f 113/93/4 116/68/4 115/70/4
f 117/75/4 119/95/4 118/73/4
f 117/75/4 120/15/4 119/95/4
f 121/96/4 123/97/4 122/98/4
f 121/96/4 124/99/4 123/97/4
f 125/100/4 127/89/4 126/101/4
f 125/100/4 128/87/4 127/89/4
f 129/102/4 131/103/4 130/104/4
f 129/102/4 132/105/4 131/103/4
f 133/86/4 135/104/4 134/84/4
f 133/86/4 136/102/4 135/104/4
f 137/106/4 139/107/4 138/108/4
f 137/106/4 140/109/4 139/107/4
f 141/110/5 143/111/5 142/112/5
f 143/111/5 144/113/5 142/112/5
f 145/114/5 147/115/5 146/116/5
f 147/115/5 148/117/5 146/116/5
f 149/118/5 151/63/5 150/119/5
f 151/63/5 152/112/5 150/119/5
f 153/120/5 155/121/5 154/122/5
f 155/121/5 156/123/5 154/122/5
f 157/124/5 159/125/5 158/126/5
f 159/125/5 160/127/5 158/126/5
f 161/126/5 163/127/5 162/128/5
f 163/127/5 164/129/5 162/128/5
f 165/130/5 167/131/5 166/132/5
f 167/131/5 168/133/5 166/132/5
f 169/19/6 171/134/6 170/110/6
f 171/134/6 172/111/6 170/110/6
f 173/135/6 175/136/6 174/137/6
f 175/136/6 176/138/6 174/137/6
f 177/139/6 179/140/6 178/135/6
f 179/140/6 180/136/6 178/135/6
f 181/141/6 183/142/6 182/130/6
f 183/142/6 184/131/6 182/130/6
f 185/122/6 187/123/6 186/141/6
f 187/123/6 188/142/6 186/141/6
f 189/132/6 191/133/6 190/143/6
f 191/133/6 192/144/6 190/143/6
f 193/128/6 195/129/6 194/120/6
f 195/129/6 196/121/6 194/120/6
